<svg
  viewBox="462 197.5949 190 189.9978"
  xmlns="http://www.w3.org/2000/svg"
  xmlns:xlink="http://www.w3.org/1999/xlink"
  preserveAspectRatio="none">
  <g opacity="1" transform="rotate(0 462 197.5949)">
    <svg
      width="190"
      height="189.9978"
      x="462"
      y="197.5949"
      version="1.1"
      preserveAspectRatio="none"
      viewBox="9.99911403656006 10 80.00088500976562 80"
    >
      <g
        transform="matrix(1 0 0 1 0 0)"
        class="icon10c861adb-a1a9-41b1-b35c-a90a24b39b4b"
      >
        <path
          d="m50 12c-20.988 0-38 17.012-38 38 0 11.145 4.7969 21.172 12.445 28.121 0.21484 0.19922 0.33594 0.48047 0.32422 0.77344-0.007812 0.29297-0.14844 0.57031-0.37891 0.75l-10.523 8.3555h36.133c20.988 0 38-17.012 38-38s-17.012-38-38-38zm-40 38c0-22.09 17.91-40 40-40s40 17.91 40 40-17.91 40-40 40h-39c-0.42578 0-0.80469-0.26953-0.94531-0.67188-0.14063-0.40234-0.007813-0.84766 0.32422-1.1094l11.863-9.418c-7.5469-7.2734-12.242-17.492-12.242-28.801zm11.012-0.80078c-0.007813 0.26562-0.011719 0.53125-0.011719 0.80078 0 1.25 0.078125 2.4805 0.23438 3.6914l12.266-7.082c0.30859-0.17969 0.69141-0.17969 1 0 0.30859 0.17578 0.5 0.50781 0.5 0.86328v13.527h4v-16.992c0-0.35547 0.19141-0.6875 0.5-0.86328l15-8.6602c0.30859-0.17969 0.69141-0.17969 1 0 0.30859 0.17578 0.5 0.50781 0.5 0.86328v43.031c1.3711-0.28906 2.707-0.67578 4-1.1484v-22.23c0-0.55078 0.44922-1 1-1h17.727c0.17969-1.3086 0.27344-2.6445 0.27344-4h-18c-0.55078 0-1-0.44922-1-1v-17.113c0-0.35938 0.19141-0.6875 0.5-0.86719l7.0781-4.0859c-1.1875-0.90625-2.4492-1.7266-3.7695-2.4414zm0.16406-2.4023 40.465-23.367c-3.5625-1.5625-7.5-2.4297-11.641-2.4297-14.934 0-27.23 11.285-28.824 25.797zm48.051-18.508-7.2266 4.1719v15.539h16.934c-0.53516-7.832-4.1797-14.812-9.707-19.711zm9.1523 27.711h-16.379v20.41c8.2695-3.7656 14.461-11.301 16.379-20.41zm-24.379 22.727v-41.645l-13 7.5039v17.414c0 0.55078-0.44922 1-1 1h-6c-0.26562 0-0.51953-0.10547-0.70703-0.29297s-0.29297-0.44141-0.29297-0.70703v-12.793l-11.422 6.5938c2.6875 13.234 14.391 23.199 28.422 23.199 1.3555 0 2.6914-0.09375 4-0.27344zm-35-28.727c0-17.121 13.879-31 31-31s31 13.879 31 31-13.879 31-31 31-31-13.879-31-31z"
          fill-rule="evenodd"
        ></path>
      </g>
    </svg>
  </g>
</svg>
